<svg viewBox="0 0 211 290" xmlns="http://www.w3.org/2000/svg">
	<style>
		svg       { background: powderblue }
		#Accent   { fill: #faa1e4 }
		#Backing  { fill: white   }
		#Coloring { fill: #bd4886   }
	</style>

	<path id="Backing" d="M89.04 11.304C77.76 12.356 68.432 16.92 62.567 26.08L60.81 12.383S43.744 28.976 47.419 43.84L22.376 70.907l3.031 34.687a8.69 8.69 0 0 0-.999 1.306c.465 4.473 3.013 10.207 3.013 10.207s-8.05 2.648-11.222 5.485c-.124 2.632 5.48 12.87 13.483 17.465l3.303 2.416c1.3.956 2.223 1.656 2.974 2.277-2.03 1.248-4.254 2.827-6.04 4.582 3.664 1.187 7.327 2.74 10.99 4.512l.001-.007 1.51.767 5.026 3.094 2.582 1.01 3.23 1.552 2.304 5.504-7.052 2.94-9.037 6.8-3.2 5.12 1.653 6.432L8.989 228.96l-.445 16.207 17.178 9.405 21.777 10.824 15.822 12.805 11.608 7.162 7.42-4.984 43.424-24.94 36.306-14.386 22.215-8.318 21.355-7.747 1.355-2.256.388-5.423-.22-5.227-46.532-30.453-9.152-13.642-3.62.472.902-11.126 5.097-3.297.904-.583s9.292-3.55 13.982-11.177l-3.11-4.819s17.54-12.375 17.728-27.816c-5.857-8.24-13.706-9.431-13.706-9.431l15.682-48.881.625-26.876-35.946 10.663-15.082-8.89-17.262-6.903L122.949 0s-20.068 10.012-33.91 11.304z"/>

	<path id="Accent" d="M55.76 165.76s-19.906 7.756-19.13 15.254c.775 7.497 12.55 37.532 12.55 37.532s4.746 56.727 24.806 69.082c43.802-47.106 60.737-61.824 61.362-67.684 27.632-43.382 28.58-37.937 16.14-51.957-8.628 10.082-22.84 12.67-22.84 12.67-1.792 7.335-32.82 8.426-36.937 3.21-8.42 1.552-20.4 1.801-28.406 1.829z"/>

	<path id="Coloring" d="M122.948 0v.001zM72.73 121.848c.305-.175.608-.35.92-.533-3.995-.633-9.61-1.592-14.126-2.486.143-.209.289-.415.436-.621l.105-.147c.157-.219.315-.437.475-.654 5.633 1.071 10.29 1.877 15.245 2.63l.611-.377c-3.587-.529-9.177-1.517-15.454-2.79a45.683 45.683 0 0 1 .616-.79c.16-.203.322-.405.486-.605 7.183 1.442 13.327 2.483 16.414 2.864l.361-.242c-2.914-.422-8.385-1.379-14.874-2.682 2.4-.072 4.656-.154 7.004-.274 5.687 1.043 9.59 1.644 9.785 1.634.218-.156.435-.314.652-.473-1.974-.263-4.77-.693-8.164-1.28 2.38-.127 4.871-.266 7.33-.437 1.111.159 1.971.266 2.632.335.181-.145.363-.29.541-.436-.253-.027-.48-.047-.761-.08h.006c2.844-.23 5.418-.501 7.189-.838.645-.122 1.274-.354 1.755-.829.464-.46.774-1.173.886-2.023.251-1.919.223-5.836.117-9.242l.017-.04c-.01-.34-.02-.684-.032-1.01.15.008.297.012.446.019.118-.285.236-.56.354-.849 7.48-4.353 15.465-4.669 23.453-2.529.142.223.28.434.413.63.532.006 1.077.003 1.637-.01.281.096.514.18.718.257-.003.475-.006.97-.006 1.314-.193.007-.382.01-.573.015-1.269-.279-2.049-.413-2.049-.413s21.304 9.095 24.18 15.939c3.57 8.5-5.282 31.026-8.853 32.363-3.57 1.336-14.945-1.048-16.801-1.048-1.856 0-17.562 3.686-24.997 3.143-7.434-.543-12.399-13.905-14.956-16.472-2.557-2.568-5.76-3.214-5.76-3.214l.002-.001c-3.636.379 2.2 6.185 5.031 6.714.231.043.495.188.782.403 4.48 7.793 16.871 31.202 20.937 34.073 4.757 3.357 24.432 1.09 26.834-1.258 2.028-1.98 5.869-15.326 7.027-19.473.816.13 1.57.246 2.205.334 6.568-3.569 11.534-18.02 11.502-29.29.137.1.298.223.5.397 1.64-.216 3.456-.572 5.38-1.03.252.484.497.968.736 1.454a62.31 62.31 0 0 1-4.81.987c.17.227.337.47.496.735a56.248 56.248 0 0 0 4.7-.924c.233.49.46.98.68 1.471a60.448 60.448 0 0 1-4.665.949c.077.211.147.431.21.66 1.439-.157 3.054-.45 4.788-.851.214.495.423.99.624 1.482-1.834.432-3.568.758-5.126.934.022.237.037.512.051.794 1.467-.182 3.291-.573 5.328-1.103.199.499.39.995.576 1.49-2.222.581-4.24 1.013-5.867 1.204.001.33 0 .67-.005 1.027 1.805-.37 3.892-.91 6.124-1.553.184.504.356 1.002.527 1.5-2.442.704-4.734 1.292-6.688 1.678-.012.392-.025.785-.042 1.192 2.047-.48 4.458-1.176 7.026-1.992.168.507.334 1.012.49 1.51-2.779.882-5.405 1.635-7.59 2.127-.014.293-.032.587-.047.881 2.033-.445 4.847-1.263 7.87-2.231.156.515.306 1.023.448 1.524-3.236 1.036-6.259 1.908-8.407 2.345l-.061 1.053c2.542-.453 5.654-1.354 8.75-2.387.142.523.274 1.034.402 1.539-3.249 1.08-6.57 2.035-9.254 2.48-.02.333-.038.635-.059.954 2.902-.509 6.439-1.43 9.583-2.335.128.53.248 1.046.36 1.548-3.288.944-7.025 1.912-10.044 2.416l-.057.917c3.23-.378 6.988-1.325 10.324-2.315.115.543.22 1.061.316 1.562-3.445 1.015-7.375 1.993-10.723 2.36-.015.303-.032.637-.038.869 3.19-.402 7.223-1.482 10.878-2.618.104.555.2 1.085.282 1.575-3.578 1.105-7.544 2.162-10.77 2.593.191.23.454.492.753.768 3.03-.439 6.827-1.583 10.123-2.72.1.62.17 1.118.238 1.598-2.815.961-5.992 1.918-8.77 2.455.227.176.455.351.688.527 1.644-.21 4.359-1.008 6.431-1.675.604-.194 1.25-.248 1.794-.252.07.564.107.911.118 1.023-.405.286-.894.569-1.426.74-1.545.498-3.495 1.083-5.15 1.45.083.058.147.1.227.157l.122-.028c.962-.227 1.967-.286 2.758-.286.428 0 .793.018 1.055.037.134.009.24.019.315.026.04.015.07.018.09.018.018 0 .031-.004.032-.004 0 0-.015.003-.03.01a.217.217 0 0 0-.072.058 14.755 14.755 0 0 1-1.189.688c-.405.21-.889.43-1.408.626l.447.3s5.878-2.248 10.643-7.005c-.275-1.454-3.994-20.354-14.026-34.654a79.837 79.837 0 0 0 2.651-.447 22.273 22.273 0 0 0 1.98-.448c.29-.083.552-.165.893-.324.341-.158 1.054-.048 1.612-1.728.171-.518.127-.551.142-.69.014-.127.023-.245.032-.374 8.232 10.015 12.797 21.211 13.754 23.696 4.952-5.08 10.81-12.948 10.92-21.838-5.858-8.24-13.707-9.43-13.707-9.43.46-.303 1.3-1.663 2.148-3.528 5.519.838 8.625-3.015 8.625-3.015l-4.331-.576c9.547-5.453 12.002-16.759 12.002-16.759s-3.652.728-6.19 3.487c8.224-12.957 10.626-74.657 2.466-65.95-10.135 10.814-23.831 19.402-34.36 21.246-1.77-3.324-11.074-18.476-32.343-15.793 7.358-6.967 5.268-19.316 5.267-19.322-.006.003-20.07 10.01-33.908 11.303-11.28 1.052-20.608 5.616-26.473 14.776L60.81 12.383S43.744 28.976 47.419 43.84c-5.306-1.736-11.605-2.388-14.691-1.64-5.893 1.43-13.336 21.488-17.838 23.733-4.5 2.245-12.486 5.659-14.493 10.642-2.007 4.984 3.926 32.64 10.116 37.56 8.62-2.68 10.759-13.905 10.759-13.905l4.134 5.364c-.111.123-.218.247-.321.37 4.556 2.053 10.057 3.47 15.549 4.82l-.043.055a54.55 54.55 0 0 0-.658.87l-.006.007c-5.11-1.527-10.857-3.468-14.849-5.744a7.878 7.878 0 0 0-.671.928c.126 1.214.408 2.52.748 3.78 4.023 1.688 8.292 2.78 12.786 3.89-.124.19-.248.382-.37.574l-.184.286c-4.064-1.27-8.591-2.76-12.22-4.707.192.704.4 1.392.613 2.04 3.28 1.653 7.164 2.781 10.932 3.771-.16.27-.318.537-.473.806l-.003.005c-3.734-1.237-7.552-2.712-10.45-4.561.8 2.443 1.634 4.323 1.634 4.323s-.476.158-1.209.423c2.708 1.211 5.51 2.02 8.398 2.818l-.004.007c-.124.244-.24.486-.36.729l-.007.012c-2.68-.934-5.83-2.188-8.099-3.54a63.928 63.928 0 0 0-4.537 1.844c3.117 1.813 7.313 3.214 11.323 4.517-.063.145-.121.287-.181.43l-.186.44c-3.714-1.45-8.168-3.331-10.97-5.38-2.025.923-4.106 2.037-5.39 3.185-.124 2.632 5.48 12.87 13.483 17.464l3.303 2.417c.493-4.258 5.867-22.846 16.308-33.834.088 1.598.188 2.88.321 3.56.124.634.29 1.232.676 1.753.386.521.977.907 1.766 1.149.623.19 1.55.272 2.745.327-8.284 12.351-13.273 30.668-13.89 38.409l1.508.767 5.027 3.094s1.576-.386 3.69-1.01a137.428 137.428 0 0 1-4.314-1.818l.003-.026a55.216 55.216 0 0 1 .154-1.266l.043-.34.003-.015c2.189.971 4.445 1.92 6.545 2.707a62.962 62.962 0 0 0 2.198-.767 89.765 89.765 0 0 1-8.581-3.057v-.001c.076-.5.166-1.042.263-1.607 3.3 1.38 7.082 2.73 10.73 3.693a22.38 22.38 0 0 0 1.454-.71c-4.232-1.01-8.48-2.336-12.072-3.618l.004-.019c.09-.5.188-1.018.295-1.558 4.006 1.439 8.862 2.946 13.584 3.985.356-.32.61-.642.723-.961a184.736 184.736 0 0 1-14.055-4.256c.107-.508.221-1.027.343-1.56v-.001a182.824 182.824 0 0 0 13.817 4.204c.006-.338.013-.76.018-1.178-3.784-.9-8.618-2.424-13.575-4.147.122-.504.253-1.023.388-1.546 4.825 1.681 9.504 3.163 13.208 4.066l.017-1.26c-3.496-.675-8.117-1.982-13.027-3.561.134-.506.27-1.014.418-1.533 4.782 1.54 9.233 2.803 12.635 3.48l.015-.89c-3.682-.92-7.962-2.15-12.374-3.521l.002-.006c.147-.497.297-.997.456-1.504l.003-.01c4.255 1.324 8.378 2.514 11.947 3.416l.025-.977c-3.595-.681-7.657-1.694-11.827-2.888.159-.499.318-.997.49-1.503 0-.002 0-.004.002-.007 4.023 1.15 7.924 2.127 11.386 2.794.01-.294.024-.584.036-.877-3.084-.522-6.994-1.422-11.206-2.551.173-.498.354-.998.539-1.5 4.052 1.084 7.77 1.941 10.74 2.452.012-.255.028-.505.042-.757-3.319-.546-6.914-1.339-10.566-2.28.187-.495.38-.992.58-1.49 3.498.896 6.927 1.653 10.091 2.18.021-.283.04-.57.064-.844-3.067-.541-6.419-1.263-9.85-2.098l.013-.03c.198-.48.403-.962.613-1.443l.003-.008c3.273.792 6.457 1.475 9.377 1.994.033-.3.068-.599.105-.878-2.357-.402-5.566-1.052-9.154-1.862.22-.491.449-.983.682-1.474 3.434.77 6.48 1.386 8.727 1.769a12.8 12.8 0 0 1 .171-.738c-2.348-.393-5.317-.972-8.589-1.677v-.002c.24-.49.486-.977.737-1.463 3.306.708 6.253 1.274 8.539 1.645a4.87 4.87 0 0 1 .644-.532 302.499 302.499 0 0 1-8.82-1.804c.256-.482.52-.962.79-1.44l.007-.012c3.428.747 6.822 1.429 10.016 2.006.28-.163.604-.345.915-.522-.321-.059-.507-.094-1.33-.241a444.597 444.597 0 0 1-9.303-1.767l.002-.004c.28-.484.57-.964.864-1.442 3.382.676 6.424 1.241 8.717 1.65 1.876.335 2.145.387 3.237.567l.673-.379a609.65 609.65 0 0 1-12.272-2.412c.163-.257.33-.513.498-.769.145-.219.44-.657.44-.657s9.981 1.98 13.48 2.616zm47.218-116.97c-.364 9.056-8.097 15.018-15.765 18.132 6.007-1.088 11.102-1.396 15.462-1.136 18.717 6.125 20.782 16.747 20.782 16.747s-.032-7.155-5.483-12.395c14.121 8.831 6.836 14.6 30.422 21.483-7.125.316-21.596-4.058-21.596-4.058.005.002 11.037 7.592 21.363 6.745-11.67 6.268-25.977.296-32.651-5.486-1.592-2.08-3.563-4.18-5.995-6.268 6.424 6.52 8.114 13.918 8.052 20.056-1.392-4.423-4.682-10.32-13.391-18.19 8.754 11.396 10.77 24.207 11.231 29.826-.187.5-.345.892-.433 1.093-1.543-4.462-5.98-15.506-13.534-20.32 3.911 3.882 9.988 16.14 12.038 20.4a62.655 62.655 0 0 1-2.493-.295c-.984-2.683-3.756-8.28-11.378-16.055l10.63 15.949c-3.44-3.528-9.258-9.045-18.69-16.799l15.054 16.167c-4.76-.941-10.925-2.623-16.74-5.608-6.22-6.323-7.579-14.391-7.579-14.391l6.771 7.846s-1.458-8.309-7.162-14.914a28.49 28.49 0 0 0-.189-2.262c4.523 3.152 15.29 12.198 15.29 12.198s-5.834-9.254-16.096-15.976c-.059-.185-.119-.37-.183-.55 9.029 4.57 16.264 9.424 16.264 9.424s-6.565-6.74-15.23-11.007c18.805 5.044 27.37 19.704 27.37 19.704s-8.776-21.442-31.447-24.183c14.188.125 29.454 6.18 29.454 6.18-11.099-9.032-30.617-11.329-45.862-5.34 6.986-5.054 18.139-6.566 18.139-6.566s-10.993-.781-19.244 4.373c9.63-9.953 29.195-12.76 29.195-12.76-.003 0-26.347-1.971-34.704 15.314-1.746-7.437 4.664-12.688 10.198-15.74 9.208-2.937 19.41-3.979 30.247-7.933-5.039 4.031-12.963 6.62-12.963 6.62s10.569-1.448 19.508-9.367c.445-.214.891-.432 1.338-.658zm-3.023 6.082s-3.336 8.756-23.025 11.047c20.204.372 23.025-11.047 23.025-11.047zM92.72 14.784s-15.063.601-19.83 11.474c8.653-9.305 19.83-11.474 19.83-11.474zM58.2 18.965l2.275 10.886c-.423.895-.812 1.794-1.206 2.598-1.819-1.85-4.028-5.295-4.028-5.295s-.036 8.692 4.353 12.69c-3.072-.48-5.506-1.69-7.165-2.766-.656-1.453-1.18-3.301-1.414-5.632 2.116-7.86 7.185-12.481 7.185-12.481zm52.215 6.372c21.272 3.939 27.993 18.892 27.993 18.892s-4.824-18.392-27.993-18.892zm-9.68.719a53.11 53.11 0 0 0-4.408.151c8.933-.152 21.709 3.616 21.709 3.616-3.95-1.943-9.707-3.706-17.301-3.767zm82.473 2.74c1.272 28.126-8.188 48.284-22.103 56.266-.902-.128-1.862-.236-2.652-.258.058-2.11.125-6.845-.215-12.578 2.245-.178 6.031-.873 9.637-3.397l-5.837-1.91s9.336-3.45 13.054-13.284l-6.276.973s.22-.925.629-2.408c2.489-1.256 4.095-2.52 4.84-3.35a155.919 155.919 0 0 1-3.325-1.642c2.425-7.346 6.76-17.622 12.248-18.412zm-102.34 8.36c4.948.08 8.383 2.543 10.627 5.907 4.974 7.458 1.589 18.877-6.32 25.22.21-2.134.368-4.679.027-5.564-.339 3.03-1.964 5.62-3.441 7.469a40.798 40.798 0 0 1-3.782 1.633c1.415-2.883 1.443-8.047 1.443-8.047s-.154 4.317-5.236 9.24c-.386.095-.641.15-.641.15s1.336-14.235-2.935-25.687c-2.045 15.705-11.85 21.28-17.72 23.227 4.162-2.536 8.679-12.912 8.679-12.912s-3.339 5.377-7.15 8.136c.595-1.908 1.067-4.01 1.385-6.441 3.169-2.8 9.704-9.765 8.153-18.554 7.177 4.44.653 17.277.653 17.277s8.167-11.292 2.518-17.869c13.097 6.869 10.868 23.637 10.868 23.637s4.867-14.357-6.567-24.865c11.339 1.625 13.555 19.338 13.555 19.338S88.3 44.027 77.96 37.365a17.204 17.204 0 0 1 2.907-.21zm1.38.661c8.29 5.52 6.999 16.507 6.999 16.507s4.827-11.423-6.998-16.507zM61.29 41.186c.938 4.5-2.881 12.245-5.291 16.542.174-3.41.361-6.108.72-9.585.969-2.413 2.49-5.223 4.571-6.957zm79.057 14.49c.799.11 1.583.204 2.353.284-.624.149-1.262.298-1.92.445-.905.203-1.832.4-2.77.59-.052-.294-.11-.59-.175-.887.847-.14 1.686-.283 2.512-.431zm7.966.64a61.5 61.5 0 0 0 1.589.011 145.106 145.106 0 0 1-11.592 2.887 25.063 25.063 0 0 0-.094-.894c.849-.142 1.691-.286 2.52-.437a167.192 167.192 0 0 0 7.577-1.567zm7.245.47l.025.04c-1.646.597-6.919 2.418-14.788 4.186-.78.176-1.578.345-2.383.512 0-.297-.003-.597-.013-.9.754-.126 1.502-.255 2.239-.39 7.868-1.43 13.225-2.946 14.92-3.448zm-50.34 1.791c6.78 7.753 14.61 10.19 14.61 10.19s-8.37-3.463-14.61-10.19zm51.109.197s-5.991 2.303-15.382 4.425a144.7 144.7 0 0 1-2.642.567c.028-.304.05-.612.067-.923.814-.136 1.621-.276 2.416-.421 9.418-1.722 15.54-3.648 15.54-3.648zm-59.525.364c.19.237.387.471.588.704-.283-.015-.569-.027-.85-.043.089-.218.178-.438.262-.661zm-.583 1.407c.62.026 1.242.05 1.869.072a27.88 27.88 0 0 0 1.639 1.608 193.232 193.232 0 0 1-4.221-.215c.25-.473.488-.962.713-1.465zm60.108.481s-5.715 2.172-14.655 4.225c-1.196.275-2.423.54-3.678.794.058-.323.11-.653.158-.987 1.139-.187 2.26-.38 3.36-.584 8.97-1.654 14.815-3.448 14.815-3.448zm-61.269 1.798c1.831.085 3.696.154 5.592.203.669.56 1.376 1.101 2.11 1.628a190.43 190.43 0 0 1-8.593-.396c.31-.462.607-.94.891-1.435zm61.269.198s-5.387 2.079-13.812 4.1c-1.61.387-3.28.757-5.005 1.105.092-.349.181-.703.263-1.07 1.561-.255 3.089-.525 4.575-.81 8.462-1.623 13.979-3.325 13.979-3.325zm-88.38 1.836c.384.046.778.094 1.182.141l.018.62c-.573-.098-1.139-.197-1.67-.292.175-.171.322-.32.47-.47zm25.723.119c3.239.165 6.587.283 10.029.33a46.133 46.133 0 0 0 2.563 1.61h-.381c-4.045-.023-7.996-.19-11.803-.452a19.071 19.071 0 0 0-.417-1.476l.008-.012zm62.656.346s-5.202 1.98-13.327 3.922c-1.982.473-4.06.922-6.223 1.337.132-.367.261-.745.385-1.14 1.948-.302 3.84-.626 5.673-.973 8.161-1.544 13.492-3.146 13.492-3.146zm-90.229 1.295c.975.124 1.95.247 3.09.383l.02.654c-1.299-.227-2.46-.443-3.54-.648.152-.134.286-.259.43-.389zm28.135.544c2.835.143 5.719.251 8.609.306 1.497.028 2.978.036 4.45.033.977.54 1.987 1.06 3.022 1.557-.67.013-1.342.024-2.02.03-1.81.013-3.636.003-5.482-.033-2.804-.053-5.597-.18-8.337-.36a19.32 19.32 0 0 0-.242-1.533zm-57.61.125c2.37.176 6.941 9.376 4.838 23.816-.724 3.336-1.189 5.892-1.189 5.892s-2.055.766-4.708 2.01l-7.916-9.281s6.742-15.411 7.774-20.964c.194-1.041.635-1.515 1.201-1.473zm119.535.505s-4.515 1.969-11.675 3.784a112.37 112.37 0 0 1-8.916 1.867c.197-.403.397-.827.6-1.305a134.81 134.81 0 0 0 8.142-1.335c7.19-1.415 11.849-3.011 11.849-3.011zm-92.364.783c1.536.19 3.3.402 5.46.643l.02.68a259.388 259.388 0 0 1-5.824-1.05l.344-.273zm30.737.644c1.994.105 4.002.197 6.018.26 3.56.11 7.04.132 10.45.061l.325-.008c.27.124.538.248.81.369.028.295.084.713.171 1.19-.424.013-.846.027-1.274.036-3.439.071-6.946.05-10.531-.061-1.975-.062-3.944-.16-5.89-.287-.007-.51-.03-1.03-.079-1.56zm61.51 1.142s-2.592.97-6.816 2.174a1.766 1.766 0 0 0-.768-.182c-.492.006-.927.263-1.248.738-.51.137-1.013.273-1.558.412a130.61 130.61 0 0 1-6.341 1.442c-.782-.314-1.554-.453-2.297-.372-.764.084-1.634.394-2.566.93.184-.303.392-.658.636-1.111 3.687-.487 7.13-1.042 10.395-1.664 6.374-1.214 10.564-2.367 10.564-2.367zm-94.21.431s2.962.388 7.496.878l.017.577c-4.599-.807-7.512-1.455-7.512-1.455zm32.778.543c1.348.07 2.7.134 4.056.186 4.71.182 9.284.213 13.743.094.106.48.25 1.01.442 1.576l-.195.006c-4.56.127-9.237.096-14.051-.09a177.034 177.034 0 0 1-4.087-.208c.05-.505.082-1.026.092-1.564zm-35.837.651c1.904.291 5.644.844 10.607 1.476l.027.884a219.982 219.982 0 0 1-10.793-2.271l.16-.089zm98.277.524s-2.3.995-5.958 2.115a6.495 6.495 0 0 0-.363-.646c3.826-.774 6.32-1.469 6.32-1.469zm-72.694.505l.396.029c.196.265.6.8 1.153 1.51-1.288-.13-2.554-.27-3.791-.418a34.61 34.61 0 0 0 2.242-1.12zm10.077.61a243.158 243.158 0 0 0 18.668.247 13.5 13.5 0 0 0 .75 1.566c-6.324.186-12.787.106-19.258-.217-.15-.007-.298-.017-.446-.024.113-.497.21-1.022.286-1.573zm28.194.075c1.194.35 2.394.674 3.592.98-1.692.166-3.429.31-5.214.427.566-.521 1.119-1.022 1.622-1.407zm-67.496.017c2.222.368 6.19.994 11.305 1.634 1.03.128 2.019.247 3.011.367l.037 1.247a229.396 229.396 0 0 1-3.21-.57 157.44 157.44 0 0 1-11.453-2.557c.104-.039.207-.082.31-.121zm102.237.907s-.164.079-.472.203c-.297.12-.664.263-1.188.455a77.322 77.322 0 0 1-3.965 1.322 7.804 7.804 0 0 0-.149-.649 126.29 126.29 0 0 0 4.05-.884c.549-.131.915-.224 1.23-.307.327-.087.494-.14.494-.14zm-10.69.112c-.037.352-.041.727-.012 1.113-1.419.352-2.902.683-4.45.997a12.655 12.655 0 0 0-1.525-1.174c2.105-.308 4.038-.601 5.986-.936zm-66.007.021c1.9.194 3.847.378 5.826.548.436.544.91 1.118 1.397 1.682a192.606 192.606 0 0 1-10.001-1.225 39.297 39.297 0 0 0 2.778-1.005zm7.36 8.464c-1.72-.365-4.438-.523-7.441-.59a14.427 14.427 0 0 0-.82-.92c8.648 1.161 16.56 2.023 20.378 2.307.197-.41.392-.806.585-1.184-5.565-.183-13.055-.964-20.749-1.984-.464-.061-.916-.126-1.375-.19-1.787-1.416-3.977-2.295-6.698-2.279-1.036.007-2.193.26-3.406.7a271.916 271.916 0 0 1-9.43-1.823c-4.727-1.003-7.961-1.82-8.947-2.075l.024-.043c.606.094 3.854.6 9.062 1.337 7.734 1.093 11.333 1.521 20.979 2.8 8.065 1.069 15.822 1.865 21.391 1.992.19-.326.38-.635.566-.919-2.768-.064-6.25-.277-10.123-.603.346-.293.716-.81 1.067-1.508 4.049.327 7.622.525 10.3.543.722-.698 1.41-.955 2.05-.628.24.12.49.303.75.535 9.034.05 18.199-.724 26.362-1.845a19.631 19.631 0 0 0-1.9 1.851c-7.243.922-15.18 1.553-23.066 1.583.169.225.34.465.514.716a222.087 222.087 0 0 0 15.326-.864l-.04.007c-.19.041-.37.082-.594.155-.224.073-.455.057-1.073.588-.537.46-.737.795-.836 1.066-3.69.29-7.619.505-11.765.614.195.316.392.64.59.975 2.728.003 6.553-.2 10.905-.576-.036.163-.065.324-.093.493-.057.347-.105.72-.148 1.12-3.78.32-7.154.508-9.758.543.175.31.349.626.524.944 2.957-.13 6.04-.36 9.161-.667-.011.14-.025.265-.036.412-.029.376-.053.78-.077 1.19-2.787.272-5.542.481-8.206.614.185.346.37.692.553 1.039 1.837-.025 4.477-.21 7.596-.524-.024.524-.045 1.058-.064 1.605-2.632.262-4.924.43-6.7.488l.395.744c-2.368-.35-5.092-.555-8.045-.372-3.645.225-6.892.92-10.051 2.115-.885-.122-2.056-.288-3.289-.465a51.702 51.702 0 0 0-.2-1.634c2.195.316 3.748.53 4.853.677l.388-.961c-1.34-.134-3.17-.345-5.372-.62a31.468 31.468 0 0 0-.306-1.64c2.698.34 4.895.594 6.31.726.118-.287.238-.577.357-.858a211.222 211.222 0 0 1-6.846-.635c-.03-.122-.06-.245-.092-.364a8.511 8.511 0 0 0-.445-1.29c3.472.376 6.303.634 8.043.744.123-.281.245-.556.367-.827-2.166-.178-9.05-.968-9.05-.968s-1.366-1.157-2.354-1.367zm40.234-8.04c1.484.347 2.96.658 4.417.935-3.354.508-6.907.922-10.642 1.2-1.302.096-2.597.178-3.885.247.647-.456 1.343-1.073 2.038-1.712.575-.037 1.151-.076 1.729-.119 2.2-.164 4.308-.348 6.343-.55zm-34.282.672c6.361.38 13.184.534 20.292.29.339.525.733 1.043 1.186 1.544-7.729.309-15.138.148-21.996-.275.188-.469.364-.99.518-1.56zm-18.417.579c2.28.259 4.585.517 7.264.815 1.987.221 3.938.422 5.831.603.676.733 1.332 1.372 1.874 1.764a364.095 364.095 0 0 1-7.88-.789 227.434 227.434 0 0 1-11.274-1.544 40.6 40.6 0 0 0 4.185-.85zm82.808.313s-1.05.504-2.866 1.203c-.077-.013-.152-.029-.234-.036a7.585 7.585 0 0 0-1.095-.027c2.595-.638 4.195-1.14 4.195-1.14zm-109.197.066c.511.155 1.214.354 2.119.569.118.028.228.052.343.078a4.654 4.654 0 0 0-.226.18 65.452 65.452 0 0 1-2.261-.784l.025-.043zm97.641.061c.077.352.178.7.302 1.035-.535.138-1.084.275-1.641.41-.574.033-1.112.063-1.71.099-.27-.306-.543-.603-.82-.881 1.328-.219 2.622-.438 3.87-.663zm-91.322 1.316c1.048.169 2.21.346 3.772.593 2.71.426 4.997.76 7.382 1.097-.633.314-1.274.668-1.915 1.063-1.961-.38-3.847-.777-5.654-1.188a88.34 88.34 0 0 1-3.378-.837 3.507 3.507 0 0 0-.207-.728zm-7.508.653c.446.133.95.279 1.57.44l.481.121a6.547 6.547 0 0 0-.13.266 65.83 65.83 0 0 1-1.978-.729l.057-.098zm106.788.368c.128.002.25.009.377.02.543.05.885.375 1.055.592.17.217.245.395.312.569.135.347.211.693.286 1.107.149.828.259 1.903.351 3.185.185 2.565.287 5.931.336 9.319.05 3.388.044 6.793.01 9.41a152.146 152.146 0 0 1-.07 3.238c-.015.41-.032.746-.05 1.01-.009.132-.017.245-.028.352s.006.148-.084.42c-.288.865-.68.837-.912.945-.232.107-.45.18-.703.252-.504.145-1.127.279-1.86.418-1.466.278-3.351.563-5.226.822-2.56.353-4.627.6-5.98.757l-.005-.006a12.102 12.102 0 0 0-.815-1.237l-.037-.049a13.763 13.763 0 0 0-.432-.543l-.038-.045c-.162-.192-.33-.382-.504-.568l.063-.008s3.681-.41 7.386-.922c1.852-.256 3.713-.539 5.094-.801.622-.118 1.102-.23 1.46-.326.01-.178.017-.324.026-.565.028-.787.054-1.884.07-3.18.035-2.589.04-5.976-.01-9.335-.048-3.36-.152-6.697-.33-9.166-.089-1.235-.2-2.259-.316-2.908-.008-.046-.013-.045-.022-.086-.293.002-.34 0-.834.017-.928.034-2.187.09-3.66.164-2.946.149-6.754.369-10.545.618-3.79.249-7.566.528-10.437.794a84.602 84.602 0 0 0-3.502.381c-.321.045-.531.083-.736.121-.01.052-.016.065-.026.125-.078.47-.152 1.172-.215 2-.124 1.657-.205 3.835-.255 5.987-.097 4.16-.081 8.069-.08 8.337a72.909 72.909 0 0 0-2.646-.708c-.001-.502 0-1.488-.028-2.687v-.001-.001l-.077-.032c-11.816-4.51-22.156-2.553-29.605 2.257.047 3.687.434 7.448-.043 11.29-.083.674-.272 1.025-.504 1.254s-.559.392-1.072.47c-3.365.515-12.749 1.272-18.826 1.545-5.587.25-12.548.43-15.762.316-1.403-.05-2.51-.178-2.883-.293-.605-.185-.889-.398-1.09-.67-.2-.27-.33-.658-.44-1.22-.126-.643-.283-2.797-.391-5.246-.109-2.449-.186-5.26-.215-7.469-.024-1.761-.026-4.26.017-6.516.044-2.256.151-4.336.28-5.003.18-.935.339-1.537.578-1.876.238-.339.569-.554 1.445-.722 1.236-.238 4.148-.486 7.387-.678 3.239-.193 6.84-.34 9.597-.416 2.14-.059 4.735-.11 7.33-.11.865 0 1.73.006 2.579.018 3.393.051 6.543.228 8.238.588.761.162 1.216.447 1.58.879.364.432.633 1.053.855 1.879.667 2.484.978 5.714 1.179 8.963 4.256-2.566 9.732-4.118 14.423-4.327 5.409-.24 10.393.446 15.288 2.236l.2.07c.01-.7.023-1.42.041-2.19.05-2.176.131-4.378.262-6.121.066-.872.14-1.623.242-2.234.05-.306.105-.576.186-.839.08-.263.086-.53.572-.947.322-.276.468-.284.621-.334.154-.05.298-.084.46-.12.322-.068.707-.132 1.171-.196a86.05 86.05 0 0 1 3.621-.395c2.914-.27 6.705-.55 10.51-.8 3.805-.25 7.621-.47 10.584-.62 1.48-.074 2.748-.131 3.697-.166.712-.026 1.141-.052 1.525-.044zm3.292.304s-.164.074-.406.177l-.026-.056c.185-.053.432-.121.432-.121zm-102.373 1.05a327.435 327.435 0 0 0 7.658 1.289c-.484.34-.965.698-1.44 1.073-1.496-.319-2.953-.65-4.36-.994a83.365 83.365 0 0 1-2.056-.532c.086-.277.153-.557.198-.835zm-8.742.078c.6.187 1.409.422 2.45.67a5.644 5.644 0 0 0-.05.394 31.795 31.795 0 0 1-2.464-.947l.064-.117zm8.11 1.809c.336.06.655.118 1.017.181 1.124.197 2.14.368 3.12.53-1.385.087-2.699.18-3.822.28l-.796-.204c.177-.247.339-.511.482-.787zm-9.23.218c.638.21 1.6.495 2.897.787.287.064.575.126.865.188.091.227.206.434.34.614-.45-.136-.89-.271-1.312-.409a26.68 26.68 0 0 1-2.84-1.087l.05-.093zm107.178.57l.034.276c-1.19.421-2.565.872-4.13 1.309-.268.075-.544.148-.818.223a30.273 30.273 0 0 0-.513-1.023c.369-.067.714-.127 1.099-.2a102.22 102.22 0 0 0 2.488-.503c.626-.028 1.34-.063 1.84-.083zm-10.383.55c2.781 2.481 4.264 6.9 3.718 9.538-.454 2.193-3.996 5.863-8.807 7.552.175-.22.344-.45.503-.69 1.324-2.002 2.109-4.693 2.109-7.652 0-.395-.015-.785-.042-1.169-.422.443-.954.83-1.546 1.145 0 2.699-.724 5.109-1.843 6.8-.784 1.184-1.732 1.998-2.758 2.38-.839.09-1.697.113-2.57.048-1.08-.359-2.077-1.192-2.895-2.428-.894-1.351-1.536-3.162-1.759-5.198a24.366 24.366 0 0 1 1.313-3.068c.049-.03.115-.066.226-.125-.054.476-.08.96-.08 1.446 0 4.067 1.85 7.363 4.134 7.363 2.134 0 3.917-2.893 4.116-6.677a4.08 4.08 0 0 1-.477-.006c-.195 3.317-1.766 5.836-3.64 5.837-2.02 0-3.659-2.917-3.659-6.517 0-.577.043-1.152.128-1.709.08-.038.157-.077.241-.113.19-.08.38-.149.57-.211a7.47 7.47 0 0 0-.18 1.654c0 1.136.232 2.172.659 2.99.427.818 1.126 1.514 2.072 1.514s1.645-.696 2.072-1.514c.328-.628.54-1.386.62-2.218-.657-.328-1.024-.898-1.024-1.588 0-.535.22-1.114.633-1.66a3.94 3.94 0 0 0-.502-.957 6.17 6.17 0 0 1 .926-.853c.165.286.314.6.446.935.143-.112.294-.219.451-.318a8.353 8.353 0 0 0-.408-.934c.121-.067.246-.13.376-.184a3.244 3.244 0 0 1 1.634-.235c.093.189.178.385.258.586.595-.128 1.172-.144 1.681-.047-.337-.96-.769-1.84-1.282-2.617a9.475 9.475 0 0 0-.568-.77c.584-.04 1.167-.08 1.756-.118 1.152-.076 2.267-.142 3.398-.211zm-97.804.805c.61.194 1.468.443 2.564.698.753.174 1.525.34 2.333.506a5.33 5.33 0 0 0-.18.565c-.796-.237-1.55-.47-2.256-.704a28.354 28.354 0 0 1-2.517-.956l.056-.11zm108.375.393c.015.207.027.454.04.674-.91.356-1.929.728-3.055 1.09-.393.127-.794.252-1.198.377-.13-.344-.268-.69-.418-1.039.452-.097.89-.188 1.356-.292 1.202-.27 2.3-.547 3.275-.81zm-26.898.073c-.23.435-.46.882-.685 1.344l-.086.01.014-.213c.034-.456.074-.718.113-1.064.186-.025.432-.051.644-.077zm41.503.907s-1.494 1.12-4.305 2.471a73.25 73.25 0 0 1-4.758 2.07l-.025-.875a89.664 89.664 0 0 0 4.604-1.608c2.882-1.107 4.484-2.058 4.484-2.058zm3.064.355s-1.524 1.442-4.627 3.128c-2.039 1.109-4.397 2.212-7.417 3.418l-.03.011c-.005-.337-.011-.675-.018-1.01 2.93-.994 5.223-1.887 7.267-2.815 3.176-1.446 4.825-2.732 4.825-2.732zm-127.581.183s1.559.636 4.258 1.328c.533.136 1.087.27 1.653.402-.018.18-.032.4-.047.608a68.836 68.836 0 0 1-1.736-.584c-2.65-.939-4.128-1.754-4.128-1.754zm26.593.152c-5.581.15-15.02.654-16.701 1.038-.39 3.954-.378 8.06-.317 11.487.074 4.089.221 8.169.541 12.16.838.18 4.85.338 17.566-.174 11.115-.447 17.046-1.232 18.034-1.404.156-3.742.117-7.68-.047-10.916-.386-7.62-1.036-11.1-1.602-11.723-4.997-.755-11.736-.623-17.474-.468zm91.775.287s-.799.442-2.25 1.083c-.23.101-.483.209-.734.316l-.016-.38c.219-.067.443-.136.649-.202 1.504-.48 2.35-.817 2.35-.817zm11.834.184s-1.118 1.182-3.4 2.72c-2.556 1.721-5.505 3.173-10.046 4.978-.401.16-.806.318-1.214.474-.004-.383-.006-.764-.012-1.149.29-.096.58-.191.868-.29 4.651-1.599 7.522-2.76 10.223-4.304 2.36-1.35 3.58-2.429 3.58-2.429zm-20.16.115l.028.68c-.93.365-1.986.743-3.15 1.107-.18.056-.366.11-.549.167-.088-.333-.19-.674-.302-1.018.202-.042.389-.078.595-.122a69.476 69.476 0 0 0 3.377-.814zm-83.972.768a11.414 11.414 0 0 0-1.579 3.025c.745-.213 1.614-.29 2.501-.22 2.549.196 4.615 1.514 4.615 2.944s-2.066 2.43-4.615 2.233l-.052-.004c.386 3.9 2.752 6.801 5.546 6.801 3.092 0 5.6-3.533 5.6-7.891 0-.5-.034-1-.101-1.491.115.647.173 1.313.173 1.98 0 4.474-2.553 8.1-5.702 8.1-2.99 0-5.471-3.28-5.687-7.515-1.135-.119-2.209-.466-3.018-.976-.007.193-.012.387-.012.582 0 2.76.774 5.284 2.083 7.213-6.876-1.496-12.82-4.376-12.65-6.671.167-2.242 3.538-5.887 7.964-7.92 2.02-.101 3.747-.17 4.934-.19zm14.392.032c.984.073 1.872.169 2.623.293.064.17.13.39.197.644-.842-.116-1.69-.232-2.574-.357-.08-.194-.163-.387-.246-.58zm-40.96.84c.465.193 1.326.53 2.597.934a50.93 50.93 0 0 0 3.665 1c-.007.206-.013.416-.018.63-3.28-1.151-5.47-2.162-6.253-2.541l.01-.023zm11.605.473l1.243.246c-.214.319-.415.639-.606.96-.239-.063-.474-.127-.711-.191.021-.34.047-.677.074-1.015zm29.92.08c.84.13 1.647.25 2.446.37.1.486.195 1.04.282 1.65l-2.119-.32c-.19-.564-.392-1.131-.609-1.7zm69.102.01c.01.295.018.603.027.905-1.077.373-2.205.743-3.374 1.106-.031-.36-.085-.738-.158-1.129 1.193-.286 2.356-.58 3.505-.881zm18.757 1.239s-4.528 3.217-11.854 6.307c-.481.204-.977.404-1.472.605-.002-.388-.002-.767-.005-1.161.37-.128.748-.254 1.112-.384 7.399-2.638 12.22-5.367 12.22-5.367zM120 91.994l-.007.385c-.121-.037-.264-.076-.392-.114a40.375 40.375 0 0 0-4.786-1.136c1.569-.042 3.321-.15 5.216-.321-.01.395-.022.79-.031 1.185zm-78.19-.82c2.263.862 4.759 1.443 7.168 1.999-.004.247-.008.505-.01.759-2.516-.801-5.02-1.622-7.173-2.724l.014-.035zm111.654.054c.01.401.018.805.027 1.212-.968.332-1.955.66-2.967.98l-.477-.401a6.2 6.2 0 0 0 .053-.854c1.142-.308 2.262-.62 3.364-.937zm-68.212.915c.649.103 1.284.202 1.914.3.065.545.119 1.144.162 1.632l-1.562-.244c-.162-.552-.33-1.11-.514-1.688zm7.218 1.068c.512.068 1.031.138 1.494.195-.472.21-.944.437-1.416.675-.023-.292-.051-.58-.078-.87zm79.058.275s-.06.065-.2.168c-.114.084-.24.17-.434.296-.395.256-.853.534-1.54.924-1.39.789-3.157 1.715-5.54 2.81a97.883 97.883 0 0 1-4.968 2.117c.001-.393.002-.78.001-1.186 1.625-.541 3.181-1.09 4.67-1.646 2.462-.919 4.247-1.662 5.72-2.324.724-.325 1.193-.55 1.616-.766a9.14 9.14 0 0 0 .46-.248 1.6 1.6 0 0 0 .215-.145zm-18.017.053l.01.52c.004.254.005.505.008.758-.329.112-.656.225-.99.336a145.79 145.79 0 0 0-1.153-.999c.718-.201 1.424-.407 2.125-.615zm-112.465.044s3.133.917 7.91 2.043v.788c-4.81-1.527-7.91-2.83-7.91-2.83zm44.973 1.118c.463.06.918.116 1.375.174.044.55.082 1.086.115 1.613l-1.016-.128-.474-1.66zm67.52 1.073l.004.268-.226-.203.223-.065zm-112.733.038s3.263.846 8.16 2.018l.008.811c-4.938-1.585-8.168-2.83-8.168-2.83zm32.558.234c.484 1.386 1.473 2.262 2.556 2.262.983 0 1.898-.725 2.42-1.918-.433 1.364-1.388 2.24-2.44 2.24-1.148 0-2.168-1.04-2.536-2.584zm97.235.15s-3.802 2.605-9.883 5.202c-.352.15-.715.3-1.076.45-.258-.263-.53-.532-.797-.798v-.079c.508-.171 1.011-.343 1.507-.515 3.439-1.2 5.336-1.874 7.47-2.846 1.784-.814 2.779-1.414 2.779-1.414zm-87.223.097c1.518 3.396 1.727 6.274 1.727 6.274-1.284.558-2.798.907-4.447 1.086.144-.17.286-.343.42-.525 1.333-1.805 2.171-4.194 2.3-6.835zM39.45 97.32s3.86 1.208 9.542 2.542c.006.318.01.632.017.966-5.764-1.79-9.56-3.508-9.56-3.508zm86.383.086c.344 1.023.795 1.961 1.338 2.781.183.277.379.54.584.79a14.952 14.952 0 0 1-2.261-1.02c.054-.844.171-1.697.339-2.55zm-38.263.09c.029.566.054 1.093.07 1.602l-.304-.032a28.615 28.615 0 0 1-.532-1.65c.257.028.51.054.766.08zm60.537.205a49.382 49.382 0 0 1 5.436 4.508l-.01 1.15a147.986 147.986 0 0 1-.06 2.695c-.165.034-.232.058-.419.094-1.338.254-3.188.535-5.03.789l-.434.056a39.766 39.766 0 0 0-4.696-4.477c1.976-1.055 3.807-2.592 5.213-4.815zM36.654 98.987c1.185.445 5.57 1.34 12.377 2.785 0 .031.002.062.003.092l.009.383c-.195.154-.386.311-.578.468-4.411-1.188-10.715-3.136-11.811-3.728zm131.838 1.048s-2.81 1.646-7.188 3.551c-.219-.233-.447-.47-.673-.707 4.688-1.55 7.86-2.844 7.86-2.844zm-133.57.649a430.275 430.275 0 0 0 12.53 2.88l-.006.005c-.316.273-.629.55-.936.83l-.001.001-.009.007c-4.233-1.216-7.87-2.38-11.578-3.723zm136.784.264s-1.327 1.034-3.811 2.28c-1.405.707-2.992 1.423-4.9 2.21-.233-.261-.469-.523-.71-.787 2.146-.691 3.827-1.268 5.41-1.874 2.563-.983 4.01-1.829 4.01-1.829zm-139.487.979c4.572 1.296 8.838 2.346 13.302 3.402a49.04 49.04 0 0 0-.874.866c-4.55-1.37-8.662-2.781-12.428-4.268zm78.255.363c-4.58 0-9.607 2.92-13.944 8.71-2.927 3.91-4.64 6.472-4.64 9.084 0 7.211 10.072 17.865 20.855 18.307 14.55.596 22.585-14.826 21.057-21.991-.405-1.896-1.255-2.749-3.054-4.265-8.453-7.125-15.466-9.846-20.274-9.845zm63.97.027s-1.085.838-3.207 1.885c-1.6.793-3.394 1.598-5.787 2.585-.31.128-.63.256-.947.385a91.75 91.75 0 0 0-.716-.835c.446-.145.886-.285 1.336-.433 2.505-.821 4.242-1.417 5.956-2.067 2.181-.832 3.365-1.52 3.365-1.52zm-117.202.243c1.774 1.152 4.106 2.258 6.945 3.091-1.867 1.171-3.638 2.717-5.309 4.537-1.58 0-3.04-.03-4.228-.11a198.015 198.015 0 0 1-.323-5.791 24.391 24.391 0 0 1 2.915-1.727zm-28.571.166c4.822 1.98 9.548 3.173 14.977 4.513-.278.299-.553.6-.821.902l-.01.01c-5.215-1.548-10.54-3.677-14.146-5.425zm147.57 1.33s-3.924 2.535-10.1 5.103c-.221-.277-.442-.554-.673-.837 3.618-1.212 5.529-1.841 7.821-2.834 1.892-.818 2.952-1.431 2.952-1.431zm-39.083.31c.444.33.882.664 1.308 1.01-.682.112-1.372.216-2.066.315a32.99 32.99 0 0 0-1.83-1.06 24.477 24.477 0 0 0 2.588-.264zm-110.231.04c3.74 1.581 7.964 2.829 15.162 4.585-.259.305-.513.612-.763.92l-.004.005c-5.309-1.575-11.07-3.875-14.395-5.509zm95.446 4.292c-3.967-.94-7.893-1.256-9.826-1.246-3.237.017-7.978 1.209-12.102 3.213 2.057-2.124 6.226-5.339 10.288-5.434 4.022-.095 8.395 1.582 11.64 3.467zm-37.913-2.63c.358-.074.711-.15 1.067-.23.264.014.499.019.737.011a6.929 6.929 0 0 0 1.486-.23c.002.24 0 .727 0 .727s-2.2-.172-3.29-.278zm93.946-.211s-1.47 1.103-4.173 2.474c-1.725.877-3.69 1.778-6.152 2.797-.103.043-.211.085-.315.128-.214-.287-.44-.58-.665-.874.206-.07.417-.136.623-.205 2.541-.857 4.493-1.563 6.31-2.288 2.785-1.114 4.372-2.032 4.372-2.032zm-39.015.297c.504.437.996.887 1.475 1.348-.536.1-1.065.189-1.59.273a22.84 22.84 0 0 0-1.755-1.347 54.91 54.91 0 0 0 1.87-.274zm-51.687 2.251c-3.126-.283-6.763-.76-10.633-1.368a47.017 47.017 0 0 0 4.532-.462c.535-.08 1.059-.167 2.126-.113 1.068.054 2.594.223 4.014.357-.01.53-.022 1.058-.04 1.586zm-2.74.464c-2.005.2-4.28.385-6.619.549-2.581-.45-5.34-.98-8.195-1.562.437-.307.883-.601 1.341-.889.96.075 1.94.123 2.982.13 4.001.764 7.648 1.391 10.543 1.767m95.449-1.142s-1.422.874-3.917 2.097c-1.734.85-3.785 1.799-6.32 2.885-.354.152-.723.306-1.087.46-.205-.295-.411-.59-.629-.891.452-.158.923-.318 1.365-.473 2.633-.926 4.66-1.67 6.498-2.376 2.58-.994 4.09-1.702 4.09-1.702zm-155.842.123c4.027 2.168 9.192 3.64 14.498 4.985l-.006.01c-.21.296-.416.594-.618.893-4.463-1.367-10.054-3.343-13.874-5.887zm51.56 1.716c-2.212.144-4.415.249-6.561.34-.568-.115-1.131-.228-1.706-.347.536-.44 1.086-.867 1.648-1.28 2.306.468 4.525.897 6.62 1.287zm106.093.052s-.099.076-.305.198c-.158.093-.332.191-.59.331-.515.28-1.096.582-1.95 1.008a150.118 150.118 0 0 1-6.386 2.986c-.803.355-1.652.72-2.52 1.09-.189-.295-.39-.598-.593-.903.946-.336 1.903-.674 2.789-.995 2.79-1.01 4.811-1.771 6.584-2.464.9-.352 1.478-.585 2.03-.817.273-.115.45-.192.618-.27.217-.1.323-.164.323-.164zm.25 2.333s-.277.161-.796.44c-.454.244-1.03.548-1.806.946a162.022 162.022 0 0 1-8.166 3.899c-.17-.29-.345-.584-.53-.886.785-.29 1.593-.587 2.331-.865 2.591-.976 4.64-1.778 6.242-2.418.824-.328 1.396-.56 1.888-.763.547-.225.837-.353.837-.353zm-37.138.673c.202.266.402.534.598.804-.828.23-1.62.439-2.39.639-.012-.046-.023-.092-.036-.137-.1-.354-.219-.702-.357-1.042.639-.076 1.186-.139 2.185-.264zm-20.465.925c3.423-.02 7.968 3.089 7.968 3.089s-6.549-1.706-8.62-1.107c-2.073.6-8.115 2.963-8.962 3.087-.847.123-9.546-2.389-11.92-1.914-2.375.475-8.437 2.168-8.437 2.168s6.06-3.885 8.46-4.149c2.4-.263 9.328 2.238 11.532 1.843 2.33-.417 8.456-3.008 9.979-3.017zm21.463.438c.326.462.645.927.955 1.397-1.164.297-2.25.55-3.291.782a21.948 21.948 0 0 0-.315-1.555c.845-.188 1.718-.39 2.65-.624zm36.2.63s-.333.218-.975.57c-.51.28-1.098.59-1.922 1.01a143.22 143.22 0 0 1-6.06 2.89c-.217.1-.451.201-.675.301a48.009 48.009 0 0 0-.45-.843c.256-.094.538-.193.788-.285a274.567 274.567 0 0 0 6.259-2.37 95.987 95.987 0 0 0 2.007-.812c.674-.284 1.028-.462 1.028-.462zm-155.767.741c2.306 1.12 5.698 2.069 8.898 2.908l-.186.34c-.068.124-.137.248-.203.371-3.059-1.056-6.342-2.25-8.509-3.619zm120.98.737c.299.47.591.943.875 1.42-1.562.39-3.016.72-4.345.986a28.487 28.487 0 0 0-.168-1.585 91.154 91.154 0 0 0 3.638-.821zm33.469 2.019c-.001 0-.016.005-.04.018l-.11.053a160.938 160.938 0 0 1-2 .934 216.582 216.582 0 0 1-5.17 2.287c-.11-.239-.226-.485-.348-.737 2.241-.743 4.025-1.337 5.419-1.803l1.649-.552.442-.148.116-.039a.302.302 0 0 0 .041-.013zm-32.13.192c.273.475.537.954.796 1.434a69.258 69.258 0 0 1-5.507 1.186 35.67 35.67 0 0 0-.05-1.602 66.469 66.469 0 0 0 4.76-1.018zm-125.174.25c2.544 1.622 6.122 2.662 9.71 3.71l-.005.01c-.011.025-.021.049-.033.073-.112.243-.218.482-.327.723-3.28-1.186-7.126-2.67-9.345-4.515zm-4.41 2.066c1.988 1.46 8.007 3.57 12.595 5.162-.125.31-.248.618-.365.921-3.941-1.551-10.523-4.486-12.23-6.083zm160.63.344c-.019.008-2.178.945-5.445 2.296a33.688 33.688 0 0 0-.25-.616 369.74 369.74 0 0 1 5.695-1.68zm-161.975 1.011c4.01 2.562 8.42 4.051 13.184 5.773l-.01.024c-.116.318-.23.633-.34.942-4.41-1.778-9.883-4.314-12.834-6.739zm-.463 1.898c1.3 1.333 7.783 3.84 13 5.701l-.003.011c-.112.33-.215.65-.317.969-5.011-2.071-11.68-5.282-12.68-6.681zm160.264.111s-.011.004-.03.014a77.646 77.646 0 0 1-.41.204c-.289.14-.698.337-1.23.589-.254.12-.61.284-.912.426a23.792 23.792 0 0 0-.115-.363l.932-.302 1.297-.417c-.035.01.38-.123.346-.112a1.002 1.002 0 0 0 .122-.039zM19.278 127.01c1.534 1.19 7.245 3.149 10.87 4.425-.096.31-.191.62-.277.917-3.483-1.44-9.18-3.973-10.593-5.342zm1.378 3.2s3.55 1.454 8.865 3.387c-.043.157-.08.302-.12.454l-.01.042c-.03.113-.062.229-.09.339-5.23-2.345-8.645-4.223-8.645-4.223zm2.986 3.254s.24.151.738.37c.431.186.86.359 1.557.629.952.369 1.947.739 3.072 1.152l-.058.254-.087.386a99.295 99.295 0 0 1-3.05-1.519 33.514 33.514 0 0 1-1.482-.81c-.459-.268-.69-.462-.69-.462zm3.648 3.6c.01.004.635.232 1.306.48-.008.046-.022.108-.03.153l-.011.05c-.673-.362-1.255-.679-1.265-.684zm57.507 11.256c1.56 1.993 3.01 3.49 4.117 3.692.83.153 2.395.105 4.332-.06l2.1 3.686c-.87 1.312-1.493 3.516-1.783 4.695-3.422-4.254-6.898-9.258-8.766-12.013zm37.573.469c1.752.212 3.525.477 5.199.739-.887 3.555-3.971 15.311-6.25 16.328-2.682 1.198-15.328 4.032-20.362 1.774-1.766-.793-4.445-3.65-7.18-7.03.846-1.119 2.976-3.779 5.081-5.117 1.86.146 4.827 6.37 4.827 6.37l11.513-.888s2.454-4.267 4.636-5.636c1.656 1.266 3.422 5.625 3.422 5.625s.106-3.169-1.87-7.295c.65-1.547.894-3.674.984-4.87zm23.492 2.527s-16.986 28.92-21.156 31.447c-4.17 2.526-25.003 3.106-27.883 2.703-2.88-.403-35.796-27.114-35.796-27.114l4.342 5.457-15.342-5.1 1.515.746 2.452 5.427c-3.69 2.065-17.197 9.915-19.124 15.199-.191.524.473 3.158 1.558 6.789-9.162 1.492-18.262 1.97-18.262 1.97s2.75 2.846 6.84 4.374c-15.2 9.405-21.647 22.05-21.647 22.05l9.294-.088s-1.987 2.796-3.215 6.878c-5.504 12.382-1.104 23.389-.894 23.113l4.279 2.343c.179-.137 4.422-3.386 9.555-7.308.752.08 1.564.006 2.346-.215 2.339-.662 3.84-2.443 3.355-3.978a1.937 1.937 0 0 0-.045-.126c.17-.13.342-.26.514-.393 3.73-2.86 9.573-7.488 12.358-9.828 5.787-4.862 8.275-7.116 8.275-7.116s-2.127 2.597-5.637 6.217a128.527 128.527 0 0 1-14.061 12.517c-7.426 5.655-15.375 9.65-16.608 10.258l12.847 7.034c-.624-.138 15.66-8.51 23.639-19.488l-.091-.79c2.376 11.782 6.268 27.542 11.828 39.503l-13.599-8.4 15.822 12.805c2.945 5.338 6.299 9.518 10.078 11.612l8.95-9.435 43.424-24.94-38.109 19.335c15.68-16.535 41.26-43.498 43.585-45.837 1.047-1.052 2.838-3.768 4.755-6.904 3.06 3.765 7.045 7.126 10.978 9.939-3.315-2.464-5.809-5.016-7.608-7.658-2.182-3.204-2.75-5.701-2.75-5.701s1.323 2.188 3.959 4.678c2.234 2.112 4.545 3.733 7.421 5.634-3.034-2.397-5.428-5-7.186-7.545-2.15-3.115-2.926-5.496-2.926-5.496s1.432 2.052 4.026 4.568c2.905 2.815 6.089 5.205 10.983 8.417a186.426 186.426 0 0 0 10.56 6.482c1.446.83 2.44 1.391 3.921 2.14.867.438 1.054.486 1.054.486s-.22.02-1.166-.158c-1.593-.298-2.837-.627-4.398-1.117a48.491 48.491 0 0 1-7.756-3.186c1.814 1.159 3.559 2.28 5.096 3.228 3.103 1.886 5.324 2.948 5.324 2.948s-2.543-.073-6.116-1.216a39.846 39.846 0 0 1-9.157-4.265c6.552 4.27 12.137 6.803 11.816 6.842 0 0 4.728-1.78 10.91-4.093-.088-.01-.992-.12-2.483-.53a46.293 46.293 0 0 1-4.147-1.363 57.258 57.258 0 0 1-11.356-5.773c-4.922-3.245-8.58-6.693-11.292-9.954-2.581-3.102-3.836-5.468-3.836-5.468s1.752 2.025 4.694 4.64c3.264 2.9 6.79 5.508 11.751 8.787 4.146 2.741 7.305 4.679 10.605 6.558a86.53 86.53 0 0 0 3.782 2.051c1.403.708 2.263 1.035 2.294 1.047 2.4-.898 4.936-1.844 7.65-2.855-1.027-.224-3.275-.767-6.19-1.791-4.225-1.485-9.034-3.694-14.258-7.028a72.195 72.195 0 0 1-12.641-10.264c-3.062-3.112-4.82-5.422-4.82-5.422s2.145 1.956 5.52 4.646c3.648 2.909 7.72 5.865 13.065 9.278 3.428 2.189 6.198 3.857 8.93 5.386 1.61.902 3.1 1.69 4.61 2.442a86.825 86.825 0 0 0 5.936 2.696c11.23-4.182 23.56-8.724 24.923-9.01.48-.1.935-.939 1.275-2.288-.364-.094-4.26-1.111-9.946-3.265a126.302 126.302 0 0 1-5.377-2.182c-1.384-2.097-3.995-2.78-5.895-2.72a141.456 141.456 0 0 1-9.774-5.292c-1.247-.74-2.48-1.494-3.697-2.26l-.314-2.078a160.29 160.29 0 0 0 4.82 2.973c7.706 4.566 14.295 8.004 20.54 10.826 5.506 2.488 9.29 3.858 9.646 3.985 1.148-4.58.964-15.074-4.083-23.135a46.83 46.83 0 0 0-.486-1.291l8.285 2.647c-2.167-5.849-13.898-16.57-22.7-17.844 5.358-1.35 9.608-7.053 9.608-7.053s-18.786 1.237-35.751 2.178c-1.596-3.233-7.687-11.867-11.773-11.58-1.769.124-.158-7.94.309-10.122a130.862 130.862 0 0 1 3.454-2.496l-9.673 5.013zm1.448 7.621l-2.618 12.962s-.324 3.893-11.448 4.992c3.007-4.634 5.604-9.504 6.628-10.87 1.274-1.701 3.843-4.188 7.438-7.084zm-91.476 2.64c6.542 3.234 16.452 8.154 17.859 8.992 1.42.846 9.13 7.721 15.018 12.365l-5.368.75c-29.422 4.561-45.83-1.454-44.878-4.348 2.742-8.35 12.972-11.047 16.742-11.77l7.599 16.814zm95.654 7.733s5.512 5.794 5.78 10.72c.176 3.255-16.566 29.78-20.74 35.121-4.253 5.445-18.032 14.784-32.888 24.642a6.475 6.475 0 0 0-.314-1.09c-1.552-3.894-2.396-5.173-3.621-4.612-1.225.56-6.101.64-7.727 3.232-1.626 2.592-1.569 9.714-.609 9.85.96.137 1.278-10.806 7.22-7.59 5.498 2.974-2.866 12.657-2.866 12.657 6.648.35 8.755-7.797 7.957-12.247 23.18-13.28 29.324-16.866 29.324-16.866l-58.075 62.236c-18.363-7.625-23.518-60.2-23.518-60.2s4.046 6.992 6.31 8.111c-2.071 4.34-3.45 13.481 6.198 16.354-2.642-4.634-3.256-10.639-1.364-13.178 1.891-2.54 11.16-1.213 14.178.68 3.018 1.894 1.895 4.756 3.077 8.584 1.182 3.828 3.645 6.407 3.484 10.155-.162 3.748-5.721 4.797-4.337 5.764 1.384.967 6.217.482 8.932-2.34 2.716-2.822-.132-11.889-2-14.266-1.868-2.377-1.323-12.292-2.845-14.427-1.522-2.136-1.62-2.417-7.006-1.247-2.491.541-5.777.701-8.812.827 6.397-2.555 14.716-6.03 20.95-8.656.367 2.085 1.425 3.716 1.645 2.534.254-1.364 1.02-2.806 2.027-4.083 2.566-1.087 4.811-2.041 4.811-2.041s-1.822.62-4.33 1.462c2.798-3.17 6.969-4.952 7.876-1.005 1.434 6.245-9.195 12.304-5.29 11.93 13.042-1.245 11.275-23.778 5.461-21.201-4.158 1.842-10.419 6.75-11.594 8.373-.659.91-.81 2.144-.705 3.32-11.086 3.678-29.102 9.475-29.751 8.484-.936-1.43-16.973-27.873-19.881-45.206 0 0 25.312 2.923 44.883 2.03 1.173-.054 5.65-.6 8.353-.935 1.46 1.048 2.638 1.778 3.321 1.97 3.425.958 24.564 1.107 29.916-1.042 1.442-.579 3.052-2.12 4.672-4.109 14.995-4.105 21.898-12.695 21.898-12.695zm1.484 21.72s1.039.932 2.735 2.325a18.2 18.2 0 0 0 .93 1.571c-2.332-2.288-3.665-3.897-3.665-3.897zm-62.209 1.458c-2.015-.02-5.195.598-7.537 2.206 0 0 5.316.925 4.859 1.893-.458.967-.12 4.634.739 3.304.859-1.33 4.565-6.248 3.777-7.013-.247-.24-.922-.38-1.838-.39zm60.992 1.054s2.466 2.305 6.477 5.323a125.904 125.904 0 0 0 6.148 4.327c4.264 3.628 8.288 6.184 8.288 6.184l-.16-1.053c1.208.736 2.287 1.39 3.596 2.151a281.732 281.732 0 0 0 7.81 4.392c-.65.178-1.237.43-1.732.742a132.02 132.02 0 0 1-8.133-4.508c-7.347-4.389-12.268-8.04-16.318-11.62-3.8-3.358-5.976-5.938-5.976-5.938zm-1.625 2.566s2.433 2.048 6.274 4.825c4.243 3.069 8.696 5.992 15.863 10.252 3.995 2.375 6.596 3.782 9.066 5.117-.36.39-.59.82-.679 1.263-2.559-1.277-5.2-2.684-9.195-5.013-7.002-4.205-11.734-7.722-15.546-10.996-3.625-3.113-5.783-5.448-5.783-5.448zm-79.425 1.819c-1.448.063-4.723 1.807-6.537 6.404 0 0 2.894-.766 3.739-.605.844.16 1.085 3.546 1.868 2.377.783-1.169 1.859-6.852 1.645-7.86-.047-.22-.309-.334-.715-.316zm78.547.509s2.513 2.113 6.466 5.003c4.306 3.148 9.015 6.27 15.372 10.079a256.293 256.293 0 0 0 9.837 5.58c.65 1.13 2.226 1.97 4.153 2.212 7.231 3.791 12.68 6.34 12.68 6.34s-14.16-4.846-27.484-12.77a101.944 101.944 0 0 1-4.436-2.79c-.766-2.13-3.236-3.939-6.048-4.429l-.18-.03a102.817 102.817 0 0 1-4.388-3.57c-3.734-3.223-5.972-5.625-5.972-5.625zm-45.228.558c-.95.054-3.978 5.936-4.85 7.432-.9 1.544 2.257-.114 2.954-1.076.696-.962 2.798 3.644 2.798 3.644 1.11-4.536.021-9.642-.817-9.986a.191.191 0 0 0-.085-.014zm-19.855.007c-7.567-.04-13.495 9.449-10.239 17.735 2.525 3.91.145-12.522 9.819-12.004 3.46.185-.118 11.486-1.993 14.746-.918 1.598 2.641-.196 4.276-3.51.986-2 5.472-15.55.091-16.745a9.216 9.216 0 0 0-1.954-.222zm63.71 1.388s2.39 2.137 6.21 5.004c1 .75 2.021 1.492 3.074 2.235a5.896 5.896 0 0 0-1.266.352 87.192 87.192 0 0 1-2.31-1.973c-3.6-3.201-5.708-5.618-5.708-5.618zm-.916 2.178s2.39 2.248 6.265 5.222c.445.342.895.679 1.346 1.015a3.44 3.44 0 0 0-.59.71c-.43-.374-.855-.746-1.264-1.116-3.656-3.31-5.757-5.831-5.757-5.831zm24.677.016c1.383.838 5.058 2.298 5.058 2.298l6.068 3.516c11.797 6.835 23.934 11.629 23.934 11.629s-12.553-3.538-24.704-10.242c-4.06-2.24-7.272-4.326-10.228-6.353zm-127.932 1.154s-1.07 1.22-2.923 3.112c.061-.235.117-.473.17-.714a166.282 166.282 0 0 0 2.753-2.398zm101.633 1.198s2.49 2.078 6.368 4.967c.589.439 1.189.879 1.797 1.32.004.655.196 1.335.562 1.994a100.922 100.922 0 0 1-2.959-2.584c-3.607-3.278-5.768-5.697-5.768-5.697zm-100.529 1.403s-2.351 2.614-6.198 6.229c-.284.267-.585.542-.88.813.451-.664.908-1.397 1.34-2.209 3.513-2.865 5.738-4.833 5.738-4.833zm137.234.148a89.39 89.39 0 0 0 4.834 1.084c4.163 2.384 8.78 4.751 14.085 7.193 1.64.713 3.049 1.27 4.144 1.686 1.434.544 2.283.86 2.283.86s-.873-.188-2.377-.562a63.102 63.102 0 0 1-4.331-1.241c-4.17-1.357-8.939-3.329-15.733-7.233-2.178-1.251-2.541-1.528-2.905-1.787zm-115.058.74c-.787-.052-1.926.39-3.628 1.251-3.026 1.533-6.451 10.722-.715 17.088 0 0-1.368-14.616 3.928-11.834 6.163 3.237.98 11.188 1.77 11.953.788.766 4.224-4.555 4.234-7.98.008-3.426-3.631-7.899-4.288-9.43-.287-.67-.688-1.008-1.3-1.048zm76.853.17s9.346 7.4 19.59 13.93a226.652 226.652 0 0 0 5.383 3.324 2.854 2.854 0 0 0-.403 1.448c0 .147.012.293.036.438a81.652 81.652 0 0 1-6.082-3.53c-10.53-6.714-18.524-15.61-18.524-15.61zm46.853.85c1.513.238 2.984.435 4.378.592 2.807 1.456 5.513 2.927 7.635 4.004 2.4 1.217 4.051 1.965 4.051 1.965s-1.774-.37-4.356-1.233c-2.716-.908-5.817-2.184-9.84-4.246-1.101-.565-1.498-.821-1.868-1.083zm7.889.916c1.437.098 2.706.137 3.734.114a78.685 78.685 0 0 1 3.895 2.201c.772.46.913.548.96.605-.095.006-.218-.003-1.114-.23-2.928-.747-5.45-1.528-7.475-2.69zm-153.252.09s-2.354 2.705-6.235 6.44a142.381 142.381 0 0 1-15.156 12.654c-3.922 2.84-7.702 5.208-12.855 7.852-2.732 1.401-2.946 1.38-2.946 1.38s1.815-1.166 2.704-1.777c4.115-2.829 7.057-5.041 12.166-8.74 6.198-4.49 11.033-8.207 15.558-11.96 4.124-3.42 6.764-5.85 6.764-5.85zm1.393 2.078s-2.302 2.703-6.12 6.426a130.975 130.975 0 0 1-4.136 3.852 7.503 7.503 0 0 0-2.396.411 225.122 225.122 0 0 0 5.999-4.852c4.063-3.409 6.653-5.837 6.653-5.837zm94.51.507s1.838 1.765 4.738 4.19c3.14 2.628 6.635 5.284 11.198 8.322 9.425 6.276 19.719 11.145 19.719 11.145s-11.074-2.884-20.88-9.406c-4.546-3.025-8.095-6.367-10.762-9.308-2.576-2.84-4.014-4.943-4.014-4.943zm-108.524.974c.1.45.224.866.361 1.249a135.653 135.653 0 0 1-9.975 7.784c-1.243.881-2.45 1.68-3.626 2.422a384.21 384.21 0 0 0 7.777-7.364c1.94-1.418 3.746-2.77 5.463-4.091zm133.366.671c.836.517 1.684 1.05 3.289 2 7.01 4.145 12.606 7.083 17.611 9.554a261.57 261.57 0 0 0 6.273 2.989c1.292.594 1.552.721 1.552.721s-.268-.095-1.62-.557a140.112 140.112 0 0 1-6.526-2.434 131.881 131.881 0 0 1-18.103-8.91c-1.475-.872-2.207-1.34-2.929-1.8a3.16 3.16 0 0 0 .453-1.563zm-118.815.268s-2.193 2.67-5.822 6.384c-.69.706-1.43 1.438-2.19 2.18a4.296 4.296 0 0 0-1.1-.484c5.384-4.583 9.112-8.08 9.112-8.08zm-13.58 1.695c.226.423.438.75.619 1.004a146.074 146.074 0 0 1-10.65 8.385c-7.45 5.32-15.615 9.434-15.615 9.434s7.322-5.46 14.693-10.725c4.173-2.982 7.7-5.589 10.953-8.098zm131.26.41c1.001.637 2.026 1.292 3.562 2.237 5.015 3.086 8.945 5.365 12.936 7.469 5.366 2.822 9.392 4.23 9.392 4.23s-4.19-.873-9.824-3.33a99.652 99.652 0 0 1-4.81-2.25c-.65-.782-1.672-1.314-2.827-1.47-1.724-.93-3.483-1.93-5.702-3.299a117.106 117.106 0 0 1-4.232-2.73 4.54 4.54 0 0 0 1.505-.857zm-116.784.318s-2.125 2.636-5.677 6.274c-.61.624-1.256 1.266-1.92 1.914a2.372 2.372 0 0 0-.31-1.034c.57-.487 1.131-.973 1.684-1.456 3.803-3.33 6.223-5.698 6.223-5.698zm110.046.335c.518.19 1.052.334 1.589.427a8.12 8.12 0 0 0 2.179.092 223.95 223.95 0 0 0 4.816 3.049 315.739 315.739 0 0 0 4.611 2.77c-.74.185-1.402.528-1.916.992-1.07-.59-2.152-1.215-4.426-2.618-2.274-1.402-4.662-3.06-6.853-4.712zm33.396 2.346c.34.169.682.34 1.02.506 7.453 3.649 13.03 5.628 13.03 5.628s-5.752-1.43-13.457-4.696c-.406-.172-.821-.354-1.233-.532.284-.282.5-.587.64-.906zm-1.921 1.786c1.11.555 2.203 1.095 3.261 1.608a236.76 236.76 0 0 0 6.919 3.228c.997.447 1.208.534 1.396.62a41.012 41.012 0 0 1-1.451-.481 148.253 148.253 0 0 1-7.17-2.674 170.434 170.434 0 0 1-4.33-1.812 7.04 7.04 0 0 0 1.375-.49zm-140.437.723s-7.84 10.494-18.735 18.778c-6.985 5.312-14.582 8.593-14.582 8.593s6.498-5.073 13.319-10.258c10.6-8.057 19.998-17.113 19.998-17.113zm-18.49 3.215c-.379.704-.477 1.43-.282 2.09-1.532 1.22-1.402 1.201-5.09 3.87-4.426 3.2-8.047 5.49-11.575 7.246-3.26 1.623-5.575 2.333-5.575 2.333s2.166-1.08 5.183-3.022c3.797-2.444 6.112-4.284 11.035-7.843a331.83 331.83 0 0 0 6.305-4.674zm18.208.379s-1.568 2.638-4.545 6.169c-3.134 3.716-7.232 7.695-12.364 11.532-2.865 2.141-5.812 3.853-8.36 5.126-2.99 1.497-5.17 2.175-5.17 2.175s1.833-1.297 4.451-3.319c1.683-1.304 5.387-4.203 7.647-5.896 5.3-3.97 9.156-7 12.935-10.446 3.354-3.06 5.406-5.341 5.406-5.341zm127.95 1.086c1.539.795 3.032 1.593 4.517 2.358 1.774.915 3.184 1.602 4.875 2.402.949.444 1.133.536 1.133.536l-1.201-.36a79.944 79.944 0 0 1-5.169-1.769 91.861 91.861 0 0 1-4.46-1.843c.202-.403.306-.834.305-1.324zm-69.455.74a.19.19 0 0 0-.08.01c-.823.282-4.321 4.273-4.758 5.684-.437 1.41 2.09-.042 2.63.764s1.452 4.232 1.452 4.232c2.92-5.233 1.59-10.616.756-10.69zm-76.403.887c.338.363.79.658 1.33.867a117.584 117.584 0 0 1-5.241 4.157c-.694.518-1.379 1.013-2.059 1.497a6.017 6.017 0 0 0-.386-.012 6.48 6.48 0 0 0-1.73.247c-2.044.578-3.492 2.03-3.445 3.455a87.753 87.753 0 0 1-4.67 2.687c-3.516 1.876-5.98 2.858-5.98 2.858s2.29-1.34 5.572-3.538c3.803-2.548 7.027-4.941 11.748-8.466a208.8 208.8 0 0 0 4.861-3.752zm18.525.354s-1.226 2.478-3.78 5.77c-2.696 3.476-6.311 7.136-11.106 10.754-3.248 2.45-6.447 4.266-10.628 6.113-2.4 1.06-2.983 1.17-2.983 1.17s.446-.323 2.5-1.961c3.185-2.54 6.686-5.346 9.49-7.47 4.992-3.78 8.3-6.33 11.736-9.512 2.98-2.758 4.77-4.864 4.77-4.864zm126.053.51c.674.361 1.347.716 2.022 1.062 3.912 2.003 6.643 3.139 6.643 3.139s-2.883-.66-7.045-2.23a75.23 75.23 0 0 1-3.05-1.232 4.48 4.48 0 0 0 1.43-.738zm-139.82.229a120.61 120.61 0 0 1-8.125 6.54c-.338-.4-.837-.711-1.45-.904.156-.116.312-.229.872-.644a301.333 301.333 0 0 0 6.431-4.922c.72.103 1.496.078 2.271-.07zm13.847 3.745s-1.044 2.157-3.243 5.026c-2.31 3.013-5.452 6.227-9.496 9.251a40.068 40.068 0 0 1-7.589 4.446c-3.09 1.388-5.383 1.795-5.383 1.795s1.885-1.26 4.487-3.285c1.578-1.24 4.669-3.703 6.752-5.269 4.368-3.282 6.973-5.155 10.178-7.927 2.651-2.293 4.294-4.037 4.294-4.037zm88.558 3.005l.281 15.956s12.46-4.865 14.91-5.575c2.45-.711-8.805 0-8.805 0zm-118.306 3.474c.25.343.614.63 1.067.841-5.866 3.64-10.784 5.992-10.784 5.992s4.308-2.963 9.717-6.833zm20.206 9.719l-8.244 7.349 6.017 4.248z"/>
</svg>