<svg xmlns="http://www.w3.org/2000/svg" viewBox="0 0 196 200"><path fill="none" d="M32 140h44v24l24-24h46l26-26V20H32zm84-88c0-2 2-4 4-4h16c2 0 4 2 4 4v52c0 2-2 4-4 4h-16c-2 0-4-2-4-4zm-40 0c0-2 2-4 4-4h16c2 0 4 2 4 4v52c0 2-2 4-4 4H80c-2 0-4-2-4-4z"/><g fill="#9d57c4"><path d="M14 0L0 24v148h48v28h28l31-28h39l50-46V0zm158 114l-26 26h-46l-24 24v-24H32V20h140z"/><path d="M80 108h16c2 0 4-2 4-4V52c0-2-2-4-4-4H80c-2 0-4 2-4 4v52c0 2 2 4 4 4zm40 0h16c2 0 4-2 4-4V52c0-2-2-4-4-4h-16c-2 0-4 2-4 4v52c0 2 2 4 4 4z"/></g></svg>